<svg xmlns="http://www.w3.org/2000/svg" version="1.1" xmlns:xlink="http://www.w3.org/1999/xlink" xmlns:svgjs="http://svgjs.dev/svgjs" width="1000" height="803" viewBox="0 0 1000 803"><g transform="matrix(1,0,0,1,0,0)"><svg viewBox="0 0 448 360" data-background-color="#dedede" preserveAspectRatio="xMidYMid meet" height="803" width="1000" xmlns="http://www.w3.org/2000/svg" xmlns:xlink="http://www.w3.org/1999/xlink"><g id="tight-bounds" transform="matrix(1,0,0,1,0,0)"><svg viewBox="0 0 448 360" height="360" width="448"><g><svg></svg></g><g><svg viewBox="0 0 448 360" height="360" width="448"><g><path xmlns="http://www.w3.org/2000/svg" d="M193.855 44.683c1.378 0 2.494 1.116 2.495 2.494 0 1.378-1.116 2.494-2.495 2.495h-23.846l-17.167 17.167c-0.973 0.973-2.551 0.973-3.53 0-0.973-0.973-0.973-2.551 0-3.529l13.644-13.645h-40.378c-11.518 0-19.151 2.688-23.815 8.113-4.739 5.519-6.66 14.056-6.66 25.63 0 0.069 0 0.137-0.006 0.206l0.212 36.692 14.692-14.692c0.973-0.973 2.551-0.973 3.53 0 0.973 0.973 0.973 2.551 0 3.53l-18.178 18.178c0.206 35.832 0.193 71.358-0.013 107.19 25.486 25.2 50.617 50.312 75.811 75.791h25.38c1.378 0 2.494 1.116 2.495 2.495 0 1.378-1.116 2.494-2.495 2.494h-20.448l25.942 26.241 0.006-0.006c8.188 8.188 15.577 12.859 22.824 13.413 7.146 0.543 14.442-2.956 22.586-11.093l28.555-28.555h-20.722c-1.378 0-2.494-1.116-2.495-2.494 0-1.378 1.116-2.494 2.495-2.495h25.711l16.625-16.625c0.973-0.973 2.551-0.973 3.529 0 0.973 0.973 0.973 2.551 0 3.53l-13.101 13.102h40.377c11.518 0 19.151-2.688 23.815-8.113 4.739-5.519 6.66-14.056 6.66-25.63h0.013l-0.212-36.898-16.014 16.014c-0.973 0.973-2.551 0.973-3.53 0-0.973-0.973-0.973-2.551 0-3.53l19.5-19.5c-0.206-35.832-0.193-71.358 0.013-107.19-25.486-25.2-50.617-50.312-75.811-75.791h-26.147c-1.378 0-2.494-1.116-2.495-2.495 0-1.378 1.116-2.494 2.495-2.494h21.215l-25.824-26.123c-0.044-0.037-0.081-0.075-0.124-0.112-8.188-8.188-15.577-12.859-22.824-13.413-7.146-0.543-14.442 2.956-22.586 11.093l-28.555 28.555h18.858zM122.578 44.683h45.367l32.078-32.078c9.248-9.248 17.81-13.195 26.484-12.534 8.568 0.649 16.956 5.824 25.985 14.854 0.05 0.05 0.094 0.094 0.137 0.143l29.278 29.615h43.508c13.071 0 21.919 3.268 27.594 9.871 5.6 6.517 7.864 16.101 7.864 28.867 0 0.081-0.006 0.156-0.012 0.23l-0.225 39.742 28.43 28.112 0.006-0.006c9.03 9.03 14.206 17.411 14.854 25.985 0.661 8.674-3.293 17.236-12.534 26.484l-30.768 30.768 0.237 41.843h0.012c0 12.765-2.27 22.35-7.864 28.867-5.675 6.604-14.524 9.872-27.594 9.871h-45.366l-32.078 32.078c-9.248 9.248-17.81 13.195-26.484 12.534-8.568-0.649-16.956-5.824-25.985-14.854l0.006-0.006-29.421-29.758h-43.509c-13.071 0-21.919-3.268-27.594-9.872-5.6-6.517-7.864-16.101-7.863-28.866h0.012l0.231-39.972-28.293-27.969c-0.05-0.044-0.1-0.087-0.143-0.137-9.03-9.03-14.206-17.411-14.854-25.985-0.661-8.674 3.293-17.236 12.534-26.484l30.768-30.768-0.237-41.607c-0.006-0.075-0.012-0.156-0.012-0.23 0-12.765 2.27-22.35 7.864-28.867 5.675-6.604 14.524-9.872 27.594-9.871zM87.682 179.997l-0.274-47.724-27.276 27.276c-8.138 8.138-11.636 15.44-11.094 22.587 0.549 7.246 5.226 14.642 13.413 22.823 0.037 0.037 0.081 0.081 0.113 0.125l24.837 24.551 0.281-49.644zM92.303 241.483l-0.2 35.09h0.013c0 11.58 1.921 20.117 6.66 25.63 4.664 5.432 12.297 8.113 23.815 8.113h38.576l-33.55-33.936-35.308-34.903zM325.415 49.672h-38.575l33.549 33.936 35.308 34.902 0.2-34.884c-0.006-0.069-0.006-0.137-0.007-0.205 0-11.58-1.921-20.117-6.66-25.63-4.664-5.432-12.297-8.113-23.815-8.113zM360.599 130.352l-0.281 49.645 0.274 47.724 27.276-27.276c8.138-8.138 11.636-15.44 11.094-22.587-0.549-7.252-5.226-14.642-13.413-22.824l0.006-0.006-24.956-24.669z" fill="#374151" fill-rule="nonzero" stroke="none" stroke-width="1" stroke-linecap="butt" stroke-linejoin="miter" stroke-miterlimit="10" stroke-dasharray="" stroke-dashoffset="0" font-family="none" font-weight="none" font-size="none" text-anchor="none" style="mix-blend-mode: normal" data-fill-palette-color="tertiary"></path></g><g transform="matrix(1,0,0,1,112,141.12454786859072)"><svg viewBox="0 0 224 77.75090426281855" height="77.75090426281855" width="224"><g><svg viewBox="0 0 330.7981124474815 114.82076951439831" height="77.75090426281855" width="224"><g transform="matrix(1,0,0,1,105.67811244748154,35.481284391576864)"><svg viewBox="0 0 225.11999999999998 43.85820073124459" height="43.85820073124459" width="225.11999999999998"><g id="textblocktransform"><svg viewBox="0 0 225.11999999999998 43.85820073124459" height="43.85820073124459" width="225.11999999999998" id="textblock"><g><rect width="225.11999999999998" height="2.4253376146631003" x="0" y="29.751172240818253" fill="#374151" opacity="1" stroke-width="0" stroke="transparent" fill-opacity="1" class="rect-o-0" data-fill-palette-color="primary" rx="1%" id="o-0" data-palette-color="#374151"></rect></g><g transform="matrix(1,0,0,1,0.5599999999999881,0)"><svg viewBox="0 0 224 26.894099134539733" height="26.894099134539733" width="224"><g transform="matrix(1,0,0,1,0,0)"><svg width="224" viewBox="0.800000011920929 -37.599998474121094 317.7300109863281 38.14999771118164" height="26.894099134539733" data-palette-color="#374151"><path d="M14.1-3.5L14.1-33.85 6.95-33.6 5-22.7 0.8-22.7 1.65-37.15 33.9-37.15 34.5-22.7 30.55-22.7 28.6-33.6 21.55-33.85 21.55-3.5 28.55-3 28.55 0 7.7 0 7.7-3 14.1-3.5ZM48.35-3.5L48.35-14.75 37.65-33.4 34.8-34.05 34.8-37.15 49.5-37.15 49.5-34.05 45.95-33.4 52.2-21.15 53.6-17.7 55.05-21.15 60.8-33.4 56.9-34.05 56.9-37.15 69.1-37.15 69.1-34.05 66-33.45 56.05-14.8 56.05-3.5 61.5-3 61.5 0 43.05 0 43.05-3 48.35-3.5ZM74.1-3.5L74.1-33.4 70.25-34.05 70.25-37.15 86.25-37.15 86.25-34.05 81.45-33.4 81.45-3.55 92.15-4 95.3-13.35 99.35-12.8 97.8 0 70.15 0 70.15-3 74.1-3.5ZM105.94-3.5L105.94-33.4 101.94-34.05 101.94-37.15 128.59-37.15 129.24-28.75 125.74-28.75 124.09-33.7 113.29-34.15 113.29-20.7 120.24-20.85 121.04-24.95 124.24-24.95 124.24-12.85 121.04-12.85 120.24-17.15 113.29-17.3 113.29-3.2 125.39-3.8 128.29-10.2 132.04-9.15 130.74 0 101.99 0 101.99-3 105.94-3.5ZM134.74 0L134.74-3 138.69-3.5 138.69-33.4 134.94-34.1 134.94-37.15 142.19-37.15Q143.14-37.15 144.29-37.2 145.44-37.25 146.04-37.3L146.04-37.3Q148.64-37.5 150.34-37.5L150.34-37.5Q155.49-37.5 158.59-36.45 161.69-35.4 163.09-33.25 164.49-31.1 164.49-27.6L164.49-27.6Q164.49-24.15 162.64-21.2 160.79-18.25 157.29-17.15L157.29-17.15Q159.29-16.3 160.84-14.05 162.39-11.8 164.14-8.2L164.14-8.2Q165.39-5.75 166.07-4.67 166.74-3.6 167.39-3.45L167.39-3.45 169.04-2.95 169.04 0 160.54 0Q159.74 0 158.87-1.63 157.99-3.25 156.59-6.75L156.59-6.75Q154.94-10.85 153.74-13.15 152.54-15.45 151.19-16L151.19-16 146.04-16 146.04-3.5 150.64-3 150.64 0 134.74 0ZM150.64-19.05Q153.49-19.05 155.09-21.1 156.69-23.15 156.69-27.25L156.69-27.25Q156.69-30.9 155.12-32.65 153.54-34.4 149.69-34.4L149.69-34.4Q148.29-34.4 147.32-34.27 146.34-34.15 146.04-34.15L146.04-34.15 146.04-19.15Q146.64-19.05 148.94-19.05L148.94-19.05 150.64-19.05ZM182.64 0L182.64-3 186.59-3.5 186.59-33.4 182.84-34.1 182.84-37.15 190.09-37.15Q191.04-37.15 192.19-37.2 193.34-37.25 193.94-37.3L193.94-37.3Q196.54-37.5 198.24-37.5L198.24-37.5Q203.39-37.5 206.49-36.45 209.59-35.4 210.99-33.25 212.39-31.1 212.39-27.6L212.39-27.6Q212.39-24.15 210.54-21.2 208.69-18.25 205.19-17.15L205.19-17.15Q207.19-16.3 208.74-14.05 210.29-11.8 212.04-8.2L212.04-8.2Q213.29-5.75 213.96-4.67 214.64-3.6 215.29-3.45L215.29-3.45 216.94-2.95 216.94 0 208.44 0Q207.64 0 206.76-1.63 205.89-3.25 204.49-6.75L204.49-6.75Q202.84-10.85 201.64-13.15 200.44-15.45 199.09-16L199.09-16 193.94-16 193.94-3.5 198.54-3 198.54 0 182.64 0ZM198.54-19.05Q201.39-19.05 202.99-21.1 204.59-23.15 204.59-27.25L204.59-27.25Q204.59-30.9 203.01-32.65 201.44-34.4 197.59-34.4L197.59-34.4Q196.19-34.4 195.21-34.27 194.24-34.15 193.94-34.15L193.94-34.15 193.94-19.15Q194.54-19.05 196.84-19.05L196.84-19.05 198.54-19.05ZM235.98 0.4Q228.38 0.4 224.68-3.4 220.98-7.2 220.98-15.35L220.98-15.35 220.98-33.4 217.68-34.05 217.68-37.15 232.78-37.15 232.78-34.05 228.53-33.35 228.53-14.7Q228.53-2.8 236.98-2.8L236.98-2.8Q241.13-2.8 243.13-5.88 245.13-8.95 245.13-14.5L245.13-14.5 245.13-33.35 240.83-34.05 240.83-37.15 253.33-37.15 253.33-34.05 249.93-33.4 249.93-14.9Q249.93-7.1 246.16-3.35 242.38 0.4 235.98 0.4L235.98 0.4ZM268.73 0.55Q266.03 0.55 263.88 0.1 261.73-0.35 259.08-1.1L259.08-1.1Q257.33-1.6 256.73-1.65L256.73-1.65 257.18-10.9 261.23-10.9 262.33-4.45Q262.98-3.75 264.66-3.2 266.33-2.65 268.48-2.65L268.48-2.65Q271.83-2.65 273.51-4.13 275.18-5.6 275.18-8.25L275.18-8.25Q275.18-10 274.18-11.28 273.18-12.55 271.43-13.58 269.68-14.6 266.63-15.95L266.63-15.95Q262.48-17.85 259.76-20.48 257.03-23.1 257.03-27.6L257.03-27.6Q257.03-30.4 258.48-32.68 259.93-34.95 262.81-36.27 265.68-37.6 269.83-37.6L269.83-37.6Q272.28-37.6 274.16-37.25 276.03-36.9 278.23-36.3L278.23-36.3Q279.53-35.95 280.18-35.85L280.18-35.85 279.88-27.1 275.88-27.1 274.83-33.25Q274.38-33.7 273.03-34.13 271.68-34.55 270.03-34.55L270.03-34.55Q267.03-34.55 265.51-33.18 263.98-31.8 263.98-29.5L263.98-29.5Q263.98-27.65 265.11-26.3 266.23-24.95 267.83-24.03 269.43-23.1 272.88-21.4L272.88-21.4Q275.68-20.05 277.68-18.75 279.68-17.45 281.13-15.38 282.58-13.3 282.58-10.5L282.58-10.5Q282.58-7.75 281.21-5.25 279.83-2.75 276.71-1.1 273.58 0.55 268.73 0.55L268.73 0.55ZM298.13-3.5L298.13-33.85 290.98-33.6 289.03-22.7 284.83-22.7 285.68-37.15 317.93-37.15 318.53-22.7 314.58-22.7 312.63-33.6 305.58-33.85 305.58-3.5 312.58-3 312.58 0 291.73 0 291.73-3 298.13-3.5Z" opacity="1" transform="matrix(1,0,0,1,0,0)" fill="#374151" class="wordmark-text-0" data-fill-palette-color="primary" id="text-0"></path></svg></g></svg></g><g transform="matrix(1,0,0,1,0,35.033582961759876)"><svg viewBox="0 0 131.51039999999998 8.824617769484712" height="8.824617769484712" width="131.51039999999998"><g transform="matrix(1,0,0,1,0,0)"><svg width="131.51039999999998" viewBox="3.049999952316284 -36.25 696.6400146484375 46.75" height="8.824617769484712" data-palette-color="#374151"><path d="M27.15-10.45L32.25-8.75Q31.25-5.75 29.25-3.68 27.25-1.6 24.55-0.55 21.85 0.5 18.6 0.5L18.6 0.5Q13.85 0.5 10.35-1.55 6.85-3.6 4.95-7.4 3.05-11.2 3.05-16.5L3.05-16.5Q3.05-21.8 4.95-25.6 6.85-29.4 10.35-31.45 13.85-33.5 18.55-33.5L18.55-33.5Q21.8-33.5 24.43-32.6 27.05-31.7 28.9-29.9 30.75-28.1 31.75-25.4L31.75-25.4 26.7-23.15Q25.7-26.1 23.8-27.48 21.9-28.85 18.85-28.85L18.85-28.85Q15.8-28.85 13.5-27.4 11.2-25.95 9.93-23.2 8.65-20.45 8.65-16.5L8.65-16.5Q8.65-12.6 9.85-9.83 11.05-7.05 13.3-5.6 15.55-4.15 18.7-4.15L18.7-4.15Q21.75-4.15 23.98-5.73 26.2-7.3 27.15-10.45L27.15-10.45ZM49.2-25.5L49.2-25.5Q52.85-25.5 55.65-23.95 58.45-22.4 60.02-19.48 61.6-16.55 61.6-12.5L61.6-12.5Q61.6-8.45 60.02-5.53 58.45-2.6 55.65-1.05 52.85 0.5 49.2 0.5L49.2 0.5Q45.55 0.5 42.75-1.05 39.95-2.6 38.35-5.53 36.75-8.45 36.75-12.5L36.75-12.5Q36.75-16.55 38.35-19.48 39.95-22.4 42.75-23.95 45.55-25.5 49.2-25.5ZM49.2-21.3L49.2-21.3Q46.95-21.3 45.37-20.28 43.8-19.25 42.95-17.3 42.1-15.35 42.1-12.5L42.1-12.5Q42.1-9.7 42.95-7.73 43.8-5.75 45.37-4.73 46.95-3.7 49.2-3.7L49.2-3.7Q51.45-3.7 53-4.73 54.55-5.75 55.4-7.73 56.25-9.7 56.25-12.5L56.25-12.5Q56.25-15.35 55.4-17.3 54.55-19.25 53-20.28 51.45-21.3 49.2-21.3ZM73.7 0L68.35 0 68.35-25 73.1-25 73.35-20.8Q74.65-23.2 76.82-24.35 79-25.5 81.45-25.5L81.45-25.5Q84.15-25.5 86.42-24.28 88.7-23.05 89.85-20.6L89.85-20.6Q90.65-22.25 92.05-23.35 93.45-24.45 95.15-24.98 96.84-25.5 98.5-25.5L98.5-25.5Q100.9-25.5 103-24.5 105.1-23.5 106.4-21.45 107.7-19.4 107.7-16.2L107.7-16.2 107.7 0 102.34 0 102.34-15.35Q102.34-18.4 100.9-19.75 99.45-21.1 97.2-21.1L97.2-21.1Q95.45-21.1 93.97-20.25 92.5-19.4 91.6-17.73 90.7-16.05 90.7-13.6L90.7-13.6 90.7 0 85.35 0 85.35-15.35Q85.35-18.4 83.9-19.75 82.45-21.1 80.2-21.1L80.2-21.1Q78.7-21.1 77.2-20.3 75.7-19.5 74.7-17.8 73.7-16.1 73.7-13.3L73.7-13.3 73.7 0ZM121.14 10.5L115.79 10.5 115.79-25 120.54-25 120.94-18 120.24-18.85Q120.84-20.8 122.09-22.3 123.34-23.8 125.22-24.65 127.09-25.5 129.34-25.5L129.34-25.5Q132.39-25.5 134.89-23.95 137.39-22.4 138.84-19.53 140.29-16.65 140.29-12.55L140.29-12.55Q140.29-8.45 138.82-5.53 137.34-2.6 134.82-1.05 132.29 0.5 129.19 0.5L129.19 0.5Q125.99 0.5 123.74-1.18 121.49-2.85 120.54-5.45L120.54-5.45 121.14-6.3 121.14 10.5ZM128.04-3.85L128.04-3.85Q131.29-3.85 133.12-6.15 134.94-8.45 134.94-12.5L134.94-12.5Q134.94-16.55 133.14-18.88 131.34-21.2 128.14-21.2L128.14-21.2Q126.04-21.2 124.47-20.13 122.89-19.05 122.02-17.13 121.14-15.2 121.14-12.5L121.14-12.5Q121.14-9.85 121.99-7.9 122.84-5.95 124.39-4.9 125.94-3.85 128.04-3.85ZM156.04 0.5L156.04 0.5Q153.59 0.5 151.52-0.4 149.44-1.3 148.19-3.3 146.94-5.3 146.94-8.5L146.94-8.5 146.94-25 152.29-25 152.29-9.85Q152.29-6.45 153.74-5.18 155.19-3.9 157.79-3.9L157.79-3.9Q159.04-3.9 160.22-4.33 161.39-4.75 162.34-5.68 163.29-6.6 163.81-8.05 164.34-9.5 164.34-11.45L164.34-11.45 164.34-25 169.69-25 169.69 0 164.99 0 164.74-4.05Q163.44-1.7 161.24-0.6 159.04 0.5 156.04 0.5ZM179.99-30.85L185.34-32.35 185.34-7.5Q185.34-5.65 186.31-4.8 187.29-3.95 188.94-3.95L188.94-3.95Q190.29-3.95 191.29-4.38 192.29-4.8 193.14-5.55L193.14-5.55 194.34-1.65Q193.19-0.65 191.51-0.08 189.84 0.5 187.79 0.5L187.79 0.5Q185.64 0.5 183.84-0.2 182.04-0.9 181.04-2.48 180.04-4.05 179.99-6.6L179.99-6.6 179.99-30.85ZM175.19-25L193.94-25 193.94-20.8 175.19-20.8 175.19-25ZM210.24 0.5L210.24 0.5Q206.49 0.5 203.64-1.05 200.79-2.6 199.21-5.53 197.64-8.45 197.64-12.5L197.64-12.5Q197.64-16.55 199.21-19.48 200.79-22.4 203.59-23.95 206.39-25.5 209.94-25.5L209.94-25.5Q213.59-25.5 216.14-24 218.69-22.5 220.04-19.9 221.39-17.3 221.39-14L221.39-14Q221.39-13.1 221.34-12.3 221.29-11.5 221.19-10.9L221.19-10.9 201.09-10.9 201.09-15 218.84-15 216.19-14.2Q216.19-17.6 214.49-19.43 212.79-21.25 209.84-21.25L209.84-21.25Q207.69-21.25 206.09-20.25 204.49-19.25 203.64-17.28 202.79-15.3 202.79-12.45L202.79-12.45Q202.79-9.65 203.69-7.7 204.59-5.75 206.24-4.75 207.89-3.75 210.14-3.75L210.14-3.75Q212.64-3.75 214.19-4.7 215.74-5.65 216.64-7.35L216.64-7.35 220.89-5.35Q219.99-3.55 218.46-2.23 216.94-0.9 214.84-0.2 212.74 0.5 210.24 0.5ZM233.48 0L228.13 0 228.13-25 232.68-25 233.18-20.5Q234.18-22.95 236.16-24.23 238.13-25.5 241.03-25.5L241.03-25.5Q241.78-25.5 242.53-25.38 243.28-25.25 243.78-25L243.78-25 243.03-20.3Q242.48-20.5 241.81-20.63 241.13-20.75 239.98-20.75L239.98-20.75Q238.43-20.75 236.93-19.93 235.43-19.1 234.46-17.45 233.48-15.8 233.48-13.25L233.48-13.25 233.48 0ZM287.13-33L292.78-33 280.53 0 274.28 0 262.03-33 267.73-33 275.43-11.05 277.43-4.5 279.43-11 287.13-33ZM300.73-29.2L300.73-29.2Q298.98-29.2 298.05-30.08 297.13-30.95 297.13-32.55L297.13-32.55Q297.13-34.15 298.05-35 298.98-35.85 300.73-35.85L300.73-35.85Q302.43-35.85 303.35-35 304.28-34.15 304.28-32.55L304.28-32.55Q304.28-30.95 303.35-30.08 302.43-29.2 300.73-29.2ZM298.03-25L303.38-25 303.38 0 298.03 0 298.03-25ZM321.22 0.5L321.22 0.5Q317.47 0.5 314.37-0.95 311.27-2.4 309.47-5.05L309.47-5.05 313.17-8.25Q314.27-6.2 316.35-4.98 318.42-3.75 321.32-3.75L321.32-3.75Q323.62-3.75 324.97-4.55 326.32-5.35 326.32-6.8L326.32-6.8Q326.32-7.75 325.7-8.47 325.07-9.2 323.32-9.6L323.32-9.6 318.07-10.7Q314.07-11.5 312.37-13.28 310.67-15.05 310.67-17.8L310.67-17.8Q310.67-19.85 311.87-21.6 313.07-23.35 315.4-24.43 317.72-25.5 320.97-25.5L320.97-25.5Q324.72-25.5 327.37-24.18 330.02-22.85 331.42-20.4L331.42-20.4 327.72-17.3Q326.77-19.3 324.92-20.28 323.07-21.25 321.07-21.25L321.07-21.25Q319.47-21.25 318.32-20.85 317.17-20.45 316.57-19.75 315.97-19.05 315.97-18.1L315.97-18.1Q315.97-17.1 316.72-16.35 317.47-15.6 319.42-15.2L319.42-15.2 325.12-14Q328.72-13.3 330.2-11.63 331.67-9.95 331.67-7.55L331.67-7.55Q331.67-5.15 330.42-3.33 329.17-1.5 326.82-0.5 324.47 0.5 321.22 0.5ZM340.87-29.2L340.87-29.2Q339.12-29.2 338.2-30.08 337.27-30.95 337.27-32.55L337.27-32.55Q337.27-34.15 338.2-35 339.12-35.85 340.87-35.85L340.87-35.85Q342.57-35.85 343.5-35 344.42-34.15 344.42-32.55L344.42-32.55Q344.42-30.95 343.5-30.08 342.57-29.2 340.87-29.2ZM338.17-25L343.52-25 343.52 0 338.17 0 338.17-25ZM362.72-25.5L362.72-25.5Q366.37-25.5 369.17-23.95 371.97-22.4 373.54-19.48 375.12-16.55 375.12-12.5L375.12-12.5Q375.12-8.45 373.54-5.53 371.97-2.6 369.17-1.05 366.37 0.5 362.72 0.5L362.72 0.5Q359.07 0.5 356.27-1.05 353.47-2.6 351.87-5.53 350.27-8.45 350.27-12.5L350.27-12.5Q350.27-16.55 351.87-19.48 353.47-22.4 356.27-23.95 359.07-25.5 362.72-25.5ZM362.72-21.3L362.72-21.3Q360.47-21.3 358.89-20.28 357.32-19.25 356.47-17.3 355.62-15.35 355.62-12.5L355.62-12.5Q355.62-9.7 356.47-7.73 357.32-5.75 358.89-4.73 360.47-3.7 362.72-3.7L362.72-3.7Q364.97-3.7 366.52-4.73 368.07-5.75 368.92-7.73 369.77-9.7 369.77-12.5L369.77-12.5Q369.77-15.35 368.92-17.3 368.07-19.25 366.52-20.28 364.97-21.3 362.72-21.3ZM387.22 0L381.87 0 381.87-25 386.62-25 386.97-18.5 386.27-19.2Q386.97-21.35 388.29-22.78 389.62-24.2 391.44-24.85 393.27-25.5 395.32-25.5L395.32-25.5Q397.97-25.5 400.09-24.48 402.22-23.45 403.47-21.4 404.72-19.35 404.72-16.2L404.72-16.2 404.72 0 399.37 0 399.37-14.55Q399.37-18.25 397.84-19.68 396.32-21.1 394.02-21.1L394.02-21.1Q392.37-21.1 390.82-20.33 389.27-19.55 388.24-17.85 387.22-16.15 387.22-13.3L387.22-13.3 387.22 0ZM429.81-33L443.26-33Q448.56-33 451.69-30.35 454.81-27.7 454.81-23.2L454.81-23.2Q454.81-18.55 451.69-16.03 448.56-13.5 443.26-13.5L443.26-13.5 442.76-13.2 435.11-13.2 435.11 0 429.81 0 429.81-33ZM435.11-17.65L442.86-17.65Q446.11-17.65 447.69-18.98 449.26-20.3 449.26-23.05L449.26-23.05Q449.26-25.75 447.69-27.1 446.11-28.45 442.86-28.45L442.86-28.45 435.11-28.45 435.11-17.65ZM441.41-14.45L446.01-16.55 456.76 0 450.61 0 441.41-14.45ZM473.66 0.5L473.66 0.5Q469.91 0.5 467.06-1.05 464.21-2.6 462.63-5.53 461.06-8.45 461.06-12.5L461.06-12.5Q461.06-16.55 462.63-19.48 464.21-22.4 467.01-23.95 469.81-25.5 473.36-25.5L473.36-25.5Q477.01-25.5 479.56-24 482.11-22.5 483.46-19.9 484.81-17.3 484.81-14L484.81-14Q484.81-13.1 484.76-12.3 484.71-11.5 484.61-10.9L484.61-10.9 464.51-10.9 464.51-15 482.26-15 479.61-14.2Q479.61-17.6 477.91-19.43 476.21-21.25 473.26-21.25L473.26-21.25Q471.11-21.25 469.51-20.25 467.91-19.25 467.06-17.28 466.21-15.3 466.21-12.45L466.21-12.45Q466.21-9.65 467.11-7.7 468.01-5.75 469.66-4.75 471.31-3.75 473.56-3.75L473.56-3.75Q476.06-3.75 477.61-4.7 479.16-5.65 480.06-7.35L480.06-7.35 484.31-5.35Q483.41-3.55 481.88-2.23 480.36-0.9 478.26-0.2 476.16 0.5 473.66 0.5ZM501.06 0.5L501.06 0.5Q497.31 0.5 494.21-0.95 491.11-2.4 489.31-5.05L489.31-5.05 493.01-8.25Q494.11-6.2 496.18-4.98 498.26-3.75 501.16-3.75L501.16-3.75Q503.46-3.75 504.81-4.55 506.16-5.35 506.16-6.8L506.16-6.8Q506.16-7.75 505.53-8.47 504.91-9.2 503.16-9.6L503.16-9.6 497.91-10.7Q493.91-11.5 492.21-13.28 490.51-15.05 490.51-17.8L490.51-17.8Q490.51-19.85 491.71-21.6 492.91-23.35 495.23-24.43 497.56-25.5 500.81-25.5L500.81-25.5Q504.56-25.5 507.21-24.18 509.86-22.85 511.26-20.4L511.26-20.4 507.56-17.3Q506.61-19.3 504.76-20.28 502.91-21.25 500.91-21.25L500.91-21.25Q499.31-21.25 498.16-20.85 497.01-20.45 496.41-19.75 495.81-19.05 495.81-18.1L495.81-18.1Q495.81-17.1 496.56-16.35 497.31-15.6 499.26-15.2L499.26-15.2 504.96-14Q508.56-13.3 510.03-11.63 511.51-9.95 511.51-7.55L511.51-7.55Q511.51-5.15 510.26-3.33 509.01-1.5 506.66-0.5 504.31 0.5 501.06 0.5ZM529 0.5L529 0.5Q525.25 0.5 522.4-1.05 519.55-2.6 517.98-5.53 516.4-8.45 516.4-12.5L516.4-12.5Q516.4-16.55 517.98-19.48 519.55-22.4 522.35-23.95 525.15-25.5 528.7-25.5L528.7-25.5Q532.35-25.5 534.9-24 537.45-22.5 538.8-19.9 540.15-17.3 540.15-14L540.15-14Q540.15-13.1 540.1-12.3 540.05-11.5 539.95-10.9L539.95-10.9 519.85-10.9 519.85-15 537.6-15 534.95-14.2Q534.95-17.6 533.25-19.43 531.55-21.25 528.6-21.25L528.6-21.25Q526.45-21.25 524.85-20.25 523.25-19.25 522.4-17.28 521.55-15.3 521.55-12.45L521.55-12.45Q521.55-9.65 522.45-7.7 523.35-5.75 525-4.75 526.65-3.75 528.9-3.75L528.9-3.75Q531.4-3.75 532.95-4.7 534.5-5.65 535.4-7.35L535.4-7.35 539.65-5.35Q538.75-3.55 537.23-2.23 535.7-0.9 533.6-0.2 531.5 0.5 529 0.5ZM561.35-9.25L561.35-16.05Q561.35-18.55 559.97-19.93 558.6-21.3 556.2-21.3L556.2-21.3Q553.95-21.3 552.35-20.25 550.75-19.2 550-16.85L550-16.85 545.5-18.75Q546.45-21.8 549.22-23.65 552-25.5 556.4-25.5L556.4-25.5Q559.4-25.5 561.7-24.53 564-23.55 565.32-21.6 566.65-19.65 566.65-16.6L566.65-16.6 566.65-5.45Q566.65-3.6 568.5-3.6L568.5-3.6Q569.4-3.6 570.25-3.85L570.25-3.85 569.95-0.15Q568.8 0.4 567.05 0.4L567.05 0.4Q565.45 0.4 564.17-0.18 562.9-0.75 562.17-1.93 561.45-3.1 561.45-4.85L561.45-4.85 561.45-5.2 562.55-5.25Q562.1-3.3 560.7-2.02 559.3-0.75 557.45-0.13 555.6 0.5 553.7 0.5L553.7 0.5Q551.35 0.5 549.47-0.25 547.6-1 546.52-2.53 545.45-4.05 545.45-6.3L545.45-6.3Q545.45-9.1 547.27-10.9 549.1-12.7 552.45-13.35L552.45-13.35 562.15-15.25 562.1-11.5 555.05-10.05Q552.95-9.65 551.9-8.9 550.85-8.15 550.85-6.7L550.85-6.7Q550.85-5.3 551.92-4.48 553-3.65 554.8-3.65L554.8-3.65Q556.05-3.65 557.22-3.95 558.4-4.25 559.35-4.93 560.3-5.6 560.82-6.68 561.35-7.75 561.35-9.25L561.35-9.25ZM580.75 0L575.4 0 575.4-25 579.95-25 580.45-20.5Q581.45-22.95 583.42-24.23 585.4-25.5 588.3-25.5L588.3-25.5Q589.05-25.5 589.8-25.38 590.55-25.25 591.05-25L591.05-25 590.3-20.3Q589.75-20.5 589.07-20.63 588.4-20.75 587.25-20.75L587.25-20.75Q585.7-20.75 584.2-19.93 582.7-19.1 581.72-17.45 580.75-15.8 580.75-13.25L580.75-13.25 580.75 0ZM606.89-25.5L606.89-25.5Q609.89-25.5 612.02-24.63 614.14-23.75 615.59-22.15 617.04-20.55 617.79-18.5L617.79-18.5 612.74-16.5Q612.09-18.8 610.67-20.03 609.24-21.25 606.94-21.25L606.94-21.25Q604.69-21.25 603.09-20.23 601.49-19.2 600.67-17.25 599.84-15.3 599.84-12.45L599.84-12.45Q599.84-9.65 600.69-7.7 601.54-5.75 603.14-4.75 604.74-3.75 606.94-3.75L606.94-3.75Q608.64-3.75 609.89-4.33 611.14-4.9 611.97-5.98 612.79-7.05 613.09-8.6L613.09-8.6 617.94-6.95Q617.24-4.7 615.77-3.03 614.29-1.35 612.09-0.43 609.89 0.5 607.04 0.5L607.04 0.5Q603.34 0.5 600.49-1.05 597.64-2.6 596.07-5.53 594.49-8.45 594.49-12.5L594.49-12.5Q594.49-16.55 596.07-19.48 597.64-22.4 600.47-23.95 603.29-25.5 606.89-25.5ZM629.54 0L624.19 0 624.19-36.25 629.54-36.25 629.54-21Q630.79-23.35 632.92-24.43 635.04-25.5 637.64-25.5L637.64-25.5Q640.29-25.5 642.42-24.48 644.54-23.45 645.79-21.4 647.04-19.35 647.04-16.2L647.04-16.2 647.04 0 641.69 0 641.69-14.5Q641.69-18.2 640.17-19.65 638.64-21.1 636.34-21.1L636.34-21.1Q634.74-21.1 633.17-20.33 631.59-19.55 630.57-17.82 629.54-16.1 629.54-13.2L629.54-13.2 629.54 0ZM666.14 0.5L666.14 0.5Q662.39 0.5 659.54-1.05 656.69-2.6 655.11-5.53 653.54-8.45 653.54-12.5L653.54-12.5Q653.54-16.55 655.11-19.48 656.69-22.4 659.49-23.95 662.29-25.5 665.84-25.5L665.84-25.5Q669.49-25.5 672.04-24 674.59-22.5 675.94-19.9 677.29-17.3 677.29-14L677.29-14Q677.29-13.1 677.24-12.3 677.19-11.5 677.09-10.9L677.09-10.9 656.99-10.9 656.99-15 674.74-15 672.09-14.2Q672.09-17.6 670.39-19.43 668.69-21.25 665.74-21.25L665.74-21.25Q663.59-21.25 661.99-20.25 660.39-19.25 659.54-17.28 658.69-15.3 658.69-12.45L658.69-12.45Q658.69-9.65 659.59-7.7 660.49-5.75 662.14-4.75 663.79-3.75 666.04-3.75L666.04-3.75Q668.54-3.75 670.09-4.7 671.64-5.65 672.54-7.35L672.54-7.35 676.79-5.35Q675.89-3.55 674.36-2.23 672.84-0.9 670.74-0.2 668.64 0.5 666.14 0.5ZM689.39 0L684.04 0 684.04-25 688.59-25 689.09-20.5Q690.09-22.95 692.06-24.23 694.04-25.5 696.94-25.5L696.94-25.5Q697.69-25.5 698.44-25.38 699.19-25.25 699.69-25L699.69-25 698.94-20.3Q698.39-20.5 697.71-20.63 697.04-20.75 695.89-20.75L695.89-20.75Q694.34-20.75 692.84-19.93 691.34-19.1 690.36-17.45 689.39-15.8 689.39-13.25L689.39-13.25 689.39 0Z" opacity="1" transform="matrix(1,0,0,1,0,0)" fill="#374151" class="slogan-text-1" data-fill-palette-color="secondary" id="text-1"></path></svg></g></svg></g></svg></g></svg></g><g><svg viewBox="0 0 99.32906110019593 114.82076951439831" height="114.82076951439831" width="99.32906110019593"><g><svg xmlns="http://www.w3.org/2000/svg" xmlns:xlink="http://www.w3.org/1999/xlink" version="1.1" x="0" y="0" viewBox="17.299999237060547 12.199999809265137 65.39999389648438 75.60000610351562" style="enable-background:new 0 0 100 100;" xml:space="preserve" height="114.82076951439831" width="99.32906110019593" class="icon-icon-0" data-fill-palette-color="accent" id="icon-0"><path d="M50 12.2L17.3 31.1v37.8L50 87.8l32.7-18.9V31.1L50 12.2zM32.1 37.4L50 16l17 21.4H32.1zM67.3 39.4L50 70.4l-18.2-31H67.3zM48.1 71l-27.7-4.5 9.8-25.9L48.1 71zM68.9 40.7l10.7 25.9-27.7 4.5L68.9 40.7zM69.2 37.1L52.6 16l27 15.6L69.2 37.1zM29.8 37.1l-9.4-5.5 26.8-15.5L29.8 37.1zM28.8 38.8l-9.5 25V33.3L28.8 38.8zM49 73.2v11.7L20.9 68.7 49 73.2zM51 73.2l28.1-4.5L51 84.9V73.2zM70.3 38.8l10.5-5.6v30.9L70.3 38.8z" fill="#374151" data-fill-palette-color="accent"></path></svg></g></svg></g></svg></g></svg></g></svg></g><defs></defs></svg><rect width="448" height="360" fill="none" stroke="none" visibility="hidden"></rect></g></svg></g></svg>