<?xml version="1.0" standalone="no"?>
<!DOCTYPE svg PUBLIC "-//W3C//DTD SVG 20010904//EN"
 "http://www.w3.org/TR/2001/REC-SVG-20010904/DTD/svg10.dtd">
<svg version="1.0" xmlns="http://www.w3.org/2000/svg"
 width="637.000000pt" height="637.000000pt" viewBox="0 0 637.000000 637.000000"
 preserveAspectRatio="xMidYMid meet">

<g transform="translate(0.000000,637.000000) scale(0.100000,-0.100000)"
fill="#000000" stroke="none">
<path d="M3070 6082 c-139 -47 -208 -103 -545 -441 l-260 -261 -421 0 c-383 0
-428 -2 -496 -19 -190 -49 -287 -145 -340 -338 -20 -73 -22 -105 -26 -503 l-4
-424 -251 -256 c-275 -278 -345 -357 -381 -429 -80 -156 -72 -286 27 -455 33
-55 104 -134 324 -356 l281 -285 4 -410 c4 -381 6 -415 26 -488 27 -100 65
-169 124 -228 55 -55 107 -82 212 -109 73 -18 111 -20 485 -20 l406 0 270
-271 c149 -148 299 -292 335 -318 211 -157 386 -169 582 -38 35 23 194 172
359 334 l296 293 420 0 c386 0 426 2 498 20 103 26 159 55 214 111 58 57 96
126 123 226 20 73 22 106 25 508 l4 430 282 282 c155 156 298 307 318 338 123
182 113 360 -29 560 -20 28 -156 172 -303 320 l-268 270 -4 410 c-3 381 -5
415 -25 488 -53 193 -150 289 -340 338 -68 17 -113 19 -481 19 l-405 0 -291
289 c-295 293 -367 353 -479 398 -83 34 -191 40 -266 15z m254 -95 c32 -15 81
-44 110 -64 53 -38 546 -521 546 -535 0 -4 -82 -9 -182 -10 l-183 -3 0 -30 0
-30 220 -3 220 -2 612 -612 612 -612 0 -850 0 -850 -165 -172 c-148 -155 -164
-175 -154 -193 21 -40 48 -24 183 108 l132 129 3 -346 c3 -383 -6 -468 -55
-569 -36 -73 -114 -144 -187 -172 -85 -32 -210 -40 -571 -41 l-320 0 101 103
c128 130 128 131 114 156 -6 12 -18 21 -28 21 -9 0 -82 -63 -162 -140 l-145
-139 -212 -1 c-197 0 -213 -1 -222 -19 -7 -13 -7 -23 2 -34 10 -14 39 -17 187
-19 l175 -3 -265 -266 c-272 -273 -336 -325 -437 -355 -62 -19 -137 -17 -199
4 -109 38 -164 82 -431 346 -145 143 -263 263 -263 268 0 4 78 8 174 8 152 0
175 2 180 16 4 9 4 25 1 35 -6 18 -20 19 -218 19 l-212 0 -612 612 -613 613 0
850 0 849 151 152 c132 133 150 155 147 180 -2 22 -9 30 -26 32 -19 3 -50 -22
-148 -120 l-125 -123 4 390 c4 414 6 435 56 539 31 64 115 139 185 165 85 32
210 40 571 41 l320 0 -113 -113 c-99 -100 -113 -118 -110 -143 2 -22 9 -30 26
-32 19 -3 53 26 171 142 l147 146 197 0 c181 0 197 1 206 19 7 13 7 23 -2 34
-10 14 -38 17 -170 19 l-158 3 258 260 c264 267 327 320 423 355 76 28 175 23
254 -13z m1557 -687 c126 -12 200 -40 264 -101 56 -53 85 -104 111 -194 15
-51 18 -117 21 -430 l4 -370 -58 55 c-126 119 -1043 1035 -1043 1042 0 11 586
9 701 -2z m735 -1543 c254 -257 298 -313 336 -421 50 -145 -5 -284 -185 -466
-40 -41 -151 -151 -245 -245 l-172 -170 0 778 c0 427 4 777 8 777 5 0 121
-114 258 -253z m-4631 -1326 c-9 -9 -463 449 -511 515 -126 175 -136 316 -33
472 25 38 140 161 293 312 l251 249 3 -771 c1 -424 0 -774 -3 -777z m632 -743
c299 -299 543 -546 543 -550 0 -11 -586 -9 -701 2 -53 5 -123 19 -155 31 -70
27 -150 98 -183 164 -51 103 -54 126 -58 523 -3 204 -1 372 4 372 4 0 252
-244 550 -542z"/>
<path d="M1650 3687 l-265 -153 0 -314 0 -313 266 -154 266 -153 266 152 266
153 0 315 0 315 -261 150 c-144 83 -264 151 -267 152 -3 2 -125 -66 -271 -150z
m415 -92 l127 -160 -141 -3 c-78 -1 -205 -1 -282 0 l-141 3 143 172 c112 135
146 170 155 160 7 -6 69 -84 139 -172z m-216 158 c-8 -10 -71 -86 -140 -169
l-126 -152 -77 45 c-43 24 -76 46 -74 48 7 6 422 245 426 245 3 0 -2 -8 -9
-17z m345 -107 c114 -66 203 -122 199 -126 -4 -4 -42 -26 -84 -49 l-76 -41
-123 157 c-68 87 -128 164 -134 172 -16 21 -9 17 218 -113z m-702 -196 c37
-23 68 -46 68 -53 0 -7 -34 -100 -75 -207 l-74 -195 -1 248 c0 136 3 247 7
247 4 0 37 -18 75 -40z m928 -202 c0 -133 -2 -239 -4 -237 -7 7 -166 392 -164
395 8 7 154 84 161 84 4 0 7 -109 7 -242z m-220 148 c0 -6 -271 -490 -279
-499 -7 -7 -301 481 -301 498 0 3 131 5 290 5 160 0 290 -2 290 -4z m-455
-283 c74 -125 130 -229 125 -231 -12 -4 -399 57 -422 66 -14 6 -8 29 52 187
100 264 90 243 101 223 5 -9 70 -119 144 -245z m575 39 c45 -111 81 -204 79
-206 -6 -4 -443 -74 -447 -71 -2 1 59 113 135 248 76 136 141 243 144 239 3
-4 43 -98 89 -210z m-618 -282 c102 -17 189 -30 192 -30 3 0 6 -43 6 -95 0
-52 -2 -95 -5 -95 -7 0 -402 227 -430 247 -18 13 -17 14 15 8 19 -3 119 -19
222 -35z m678 36 c0 -5 -435 -256 -444 -256 -3 0 -6 42 -6 94 l0 94 68 12
c353 59 382 63 382 56z"/>
<path d="M2537 3443 c-4 -3 -7 -28 -7 -55 0 -63 25 -67 37 -5 7 36 12 42 36
45 l28 3 -3 -118 c-3 -114 -4 -118 -25 -121 -13 -2 -23 -8 -23 -13 0 -5 36 -9
80 -9 78 0 105 12 55 24 -25 6 -25 7 -25 121 l0 115 25 0 c19 0 26 -7 31 -27
12 -55 16 -64 26 -61 5 2 9 7 9 11 -1 4 -1 27 -1 52 l0 45 -118 0 c-65 0 -122
-3 -125 -7z"/>
<path d="M2790 3440 c0 -5 4 -10 9 -10 5 0 28 -32 50 -71 31 -54 41 -81 41
-116 0 -36 -4 -46 -20 -50 -43 -11 -17 -23 50 -23 68 0 91 12 50 25 -33 11
-26 75 17 157 20 38 42 72 50 75 28 11 11 23 -32 23 -25 0 -45 -4 -45 -10 0
-5 5 -10 10 -10 15 0 13 -12 -13 -70 l-23 -52 -30 57 c-20 42 -25 60 -16 63
30 10 7 22 -43 22 -30 0 -55 -4 -55 -10z"/>
<path d="M3060 3440 c0 -5 7 -10 15 -10 12 0 15 -19 15 -115 0 -94 -3 -117
-15 -121 -39 -15 -6 -24 89 -24 l103 0 7 38 c9 54 8 62 -8 62 -8 0 -20 -16
-27 -35 -12 -33 -16 -35 -56 -35 l-43 0 0 111 c0 102 2 111 20 116 40 11 18
23 -40 23 -33 0 -60 -4 -60 -10z"/>
<path d="M3300 3440 c0 -5 7 -10 15 -10 12 0 15 -19 15 -115 0 -94 -3 -117
-15 -121 -39 -15 -5 -24 94 -24 l109 0 7 31 c9 42 -14 59 -33 24 -9 -18 -21
-25 -42 -25 -15 0 -35 -3 -44 -6 -13 -5 -16 3 -16 50 0 53 1 56 25 56 14 0 28
-7 31 -15 12 -30 24 -14 24 30 0 44 -15 60 -26 30 -4 -8 -17 -15 -30 -15 -22
0 -24 4 -24 50 l0 50 41 0 c32 0 42 -4 46 -20 8 -32 33 -24 33 10 l0 30 -105
0 c-63 0 -105 -4 -105 -10z"/>
<path d="M3550 3440 c0 -5 7 -10 15 -10 12 0 15 -19 15 -115 0 -94 -3 -117
-15 -121 -33 -13 -12 -24 45 -24 57 0 79 13 45 26 -10 4 -15 20 -15 50 0 40 2
44 25 44 22 0 30 -9 52 -60 24 -56 28 -60 59 -60 24 0 34 5 34 15 0 8 -4 15
-9 15 -5 0 -13 9 -16 20 -4 11 -17 33 -31 49 l-25 30 26 25 c31 31 33 78 5
106 -17 17 -33 20 -115 20 -57 0 -95 -4 -95 -10z m158 -22 c31 -31 5 -98 -38
-98 -30 0 -30 1 -30 55 0 54 1 55 28 55 15 0 33 -5 40 -12z"/>
<path d="M3920 3440 c0 -5 7 -10 15 -10 12 0 15 -19 15 -115 0 -94 -3 -117
-15 -121 -33 -13 -12 -24 45 -24 59 0 79 13 40 25 -16 5 -20 15 -20 51 0 44 1
45 28 42 22 -2 32 -13 54 -60 26 -54 30 -58 63 -58 19 0 35 2 35 5 0 6 -44 73
-68 105 -19 25 -19 25 4 43 18 13 24 28 24 56 0 60 -20 71 -128 71 -55 0 -92
-4 -92 -10z m160 -34 c5 -13 5 -37 1 -53 -6 -23 -13 -28 -44 -31 l-37 -3 0 55
0 56 35 0 c28 0 37 -5 45 -24z"/>
<path d="M4190 3440 c0 -5 5 -10 10 -10 6 0 10 -35 10 -84 0 -45 5 -97 11
-115 23 -65 123 -83 178 -32 31 29 31 30 31 125 0 77 3 98 15 102 31 12 13 24
-35 24 -51 0 -67 -13 -29 -23 20 -5 21 -11 17 -95 -5 -112 -23 -147 -71 -138
-17 4 -36 11 -42 17 -5 5 -12 57 -13 114 -3 91 -2 105 12 105 9 0 16 5 16 10
0 6 -25 10 -55 10 -30 0 -55 -4 -55 -10z"/>
<path d="M4510 3430 c-42 -42 -22 -99 50 -135 60 -31 75 -53 54 -83 -27 -39
-94 -24 -94 20 0 31 -27 20 -32 -13 -4 -25 -1 -32 19 -40 58 -22 152 -1 167
36 19 50 -1 82 -82 126 -67 36 -71 89 -7 89 29 0 36 -4 41 -25 10 -39 34 -31
34 10 l0 35 -65 0 c-52 0 -69 -4 -85 -20z"/>
<path d="M4700 3395 c0 -41 4 -55 14 -55 9 0 18 16 23 43 7 36 12 42 36 45
l27 3 0 -115 c0 -115 0 -116 -25 -122 -50 -12 -23 -24 55 -24 78 0 105 12 55
24 -25 6 -25 7 -25 121 l0 115 25 0 c24 0 29 -7 37 -64 2 -11 9 -21 16 -24 9
-3 12 12 12 52 l0 56 -125 0 -125 0 0 -55z"/>
<path d="M2525 3120 c9 -14 2435 -14 2435 0 0 7 -414 10 -1221 10 -811 0
-1218 -3 -1214 -10z"/>
<path d="M2535 3059 c-4 -6 -4 -13 -1 -16 3 -4 6 -1 6 6 0 8 8 11 20 8 11 -3
18 -1 14 4 -7 12 -31 11 -39 -2z"/>
<path d="M2886 3061 c-6 -9 9 -61 17 -61 2 0 1 16 -1 35 -4 37 -7 41 -16 26z"/>
<path d="M3061 3063 c-1 -6 4 -24 10 -40 l11 -28 13 25 c8 14 14 32 14 40 0 8
-6 2 -13 -14 l-13 -29 -11 29 c-6 16 -11 24 -11 17z"/>
<path d="M3400 3038 c0 -25 3 -29 10 -18 9 13 11 13 20 0 7 -11 10 -7 10 18 0
25 -4 32 -20 32 -16 0 -20 -7 -20 -32z m30 12 c0 -5 -4 -10 -10 -10 -5 0 -10
5 -10 10 0 6 5 10 10 10 6 0 10 -4 10 -10z"/>
<path d="M3790 3043 c0 -18 2 -33 4 -33 9 0 13 39 5 51 -6 10 -9 4 -9 -18z"/>
<path d="M3829 3028 c4 -28 6 -29 9 -9 2 13 0 27 -5 32 -6 6 -7 -3 -4 -23z"/>
<path d="M2594 3039 c-3 -6 2 -18 12 -27 17 -16 17 -16 5 0 -7 9 -10 22 -6 28
3 5 4 10 1 10 -3 0 -8 -5 -12 -11z"/>
<path d="M2632 3030 c0 -14 2 -19 5 -12 2 6 2 18 0 25 -3 6 -5 1 -5 -13z"/>
<path d="M2662 3030 c0 -14 2 -19 5 -12 2 6 2 18 0 25 -3 6 -5 1 -5 -13z"/>
<path d="M2690 3030 c0 -11 2 -20 4 -20 2 0 6 9 9 20 3 11 1 20 -4 20 -5 0 -9
-9 -9 -20z"/>
<path d="M2727 3029 c4 -13 8 -18 11 -10 2 7 -1 18 -6 23 -8 8 -9 4 -5 -13z"/>
<path d="M2750 3019 c0 -16 4 -28 9 -25 5 3 9 17 9 31 0 14 -4 25 -9 25 -5 0
-9 -14 -9 -31z"/>
<path d="M2792 3030 c0 -14 2 -19 5 -12 2 6 2 18 0 25 -3 6 -5 1 -5 -13z"/>
<path d="M2820 3031 c0 -11 4 -22 9 -25 4 -3 6 6 3 19 -5 30 -12 33 -12 6z"/>
<path d="M2852 3030 c0 -14 2 -19 5 -12 2 6 2 18 0 25 -3 6 -5 1 -5 -13z"/>
<path d="M2924 3039 c-3 -6 0 -18 9 -26 13 -13 14 -12 10 11 -6 29 -9 31 -19
15z"/>
<path d="M2950 3040 c0 -5 5 -10 10 -10 6 0 10 5 10 10 0 6 -4 10 -10 10 -5 0
-10 -4 -10 -10z"/>
<path d="M2980 3028 c0 -19 2 -20 10 -8 13 19 13 30 0 30 -5 0 -10 -10 -10
-22z"/>
<path d="M3132 3030 c0 -14 2 -19 5 -12 2 6 2 18 0 25 -3 6 -5 1 -5 -13z"/>
<path d="M3150 3041 c0 -5 7 -12 16 -15 9 -3 12 -11 8 -18 -5 -10 -4 -10 6 -1
10 9 10 15 -3 27 -18 18 -27 20 -27 7z"/>
<path d="M3212 3030 c0 -14 2 -19 5 -12 2 6 2 18 0 25 -3 6 -5 1 -5 -13z"/>
<path d="M3272 3030 c0 -14 2 -19 5 -12 2 6 2 18 0 25 -3 6 -5 1 -5 -13z"/>
<path d="M3300 3030 c0 -11 2 -20 4 -20 2 0 6 9 9 20 3 11 1 20 -4 20 -5 0 -9
-9 -9 -20z"/>
<path d="M3332 3030 c0 -14 2 -19 5 -12 2 6 2 18 0 25 -3 6 -5 1 -5 -13z"/>
<path d="M3464 3039 c-3 -6 1 -17 10 -25 9 -8 12 -9 7 -3 -5 6 -7 18 -4 25 6
17 -3 19 -13 3z"/>
<path d="M3490 3040 c0 -5 5 -10 11 -10 5 0 7 5 4 10 -3 6 -8 10 -11 10 -2 0
-4 -4 -4 -10z"/>
<path d="M3520 3044 c0 -4 8 -13 18 -21 16 -14 16 -14 -3 -8 -15 5 -17 3 -8
-6 11 -11 33 -5 33 9 0 4 -9 13 -20 20 -11 7 -20 9 -20 6z"/>
<path d="M3576 3042 c-13 -21 20 -50 36 -33 11 10 10 11 -4 6 -12 -5 -17 0
-20 17 -2 17 -5 20 -12 10z"/>
<path d="M3605 3040 c-3 -5 -1 -10 4 -10 6 0 11 5 11 10 0 6 -2 10 -4 10 -3 0
-8 -4 -11 -10z"/>
<path d="M3660 3031 c0 -11 5 -23 10 -26 6 -3 10 3 10 14 0 11 -4 23 -10 26
-5 3 -10 -3 -10 -14z"/>
<path d="M3690 3028 c0 -19 2 -20 10 -8 13 19 13 30 0 30 -5 0 -10 -10 -10
-22z"/>
<path d="M3734 3039 c-3 -6 2 -18 12 -27 17 -16 17 -16 5 0 -7 9 -10 22 -6 28
3 5 4 10 1 10 -3 0 -8 -5 -12 -11z"/>
<path d="M3858 3044 c-4 -6 -1 -20 7 -30 11 -16 16 -17 27 -6 11 11 10 12 -4
7 -12 -5 -17 0 -20 17 -2 13 -6 18 -10 12z"/>
<path d="M3885 3040 c-3 -5 -1 -10 4 -10 6 0 11 5 11 10 0 6 -2 10 -4 10 -3 0
-8 -4 -11 -10z"/>
<path d="M3922 3030 c0 -14 2 -19 5 -12 2 6 2 18 0 25 -3 6 -5 1 -5 -13z"/>
<path d="M3635 3021 c-3 -5 -1 -12 5 -16 5 -3 10 1 10 9 0 18 -6 21 -15 7z"/>
<path d="M2555 3010 c-3 -6 1 -7 9 -4 18 7 21 14 7 14 -6 0 -13 -4 -16 -10z"/>
</g>
</svg>
